<?xml version="1.0" encoding="utf-8" standalone="no"?>
<!DOCTYPE svg PUBLIC "-//W3C//DTD SVG 1.1//EN"
  "http://www.w3.org/Graphics/SVG/1.1/DTD/svg11.dtd">
<svg xmlns:xlink="http://www.w3.org/1999/xlink" width="864pt" height="216pt" viewBox="0 0 864 216" xmlns="http://www.w3.org/2000/svg" version="1.1">
 <metadata>
  <rdf:RDF xmlns:dc="http://purl.org/dc/elements/1.1/" xmlns:cc="http://creativecommons.org/ns#" xmlns:rdf="http://www.w3.org/1999/02/22-rdf-syntax-ns#">
   <cc:Work>
    <dc:type rdf:resource="http://purl.org/dc/dcmitype/StillImage"/>
    <dc:date>2025-04-25T13:50:07.069282</dc:date>
    <dc:format>image/svg+xml</dc:format>
    <dc:creator>
     <cc:Agent>
      <dc:title>Matplotlib v3.10.0, https://matplotlib.org/</dc:title>
     </cc:Agent>
    </dc:creator>
   </cc:Work>
  </rdf:RDF>
 </metadata>
 <defs>
  <style type="text/css">*{stroke-linejoin: round; stroke-linecap: butt}</style>
 </defs>
 <g id="figure_1">
  <g id="patch_1">
   <path d="M 0 216 
L 864 216 
L 864 0 
L 0 0 
z
" style="fill: #ffffff"/>
  </g>
  <g id="axes_1">
   <g id="patch_2">
    <path d="M 48.367091 175.381683 
L 848.218665 175.381683 
L 848.218665 10.8 
L 48.367091 10.8 
z
" style="fill: #ffffff"/>
   </g>
   <g id="matplotlib.axis_1">
    <g id="xtick_1">
     <g id="line2d_1">
      <defs>
       <path id="m382ee595d9" d="M 0 0 
L 0 3.5 
" style="stroke: #000000; stroke-width: 0.8"/>
      </defs>
      <g>
       <use xlink:href="#m382ee595d9" x="48.367091" y="175.381683" style="stroke: #000000; stroke-width: 0.8"/>
      </g>
     </g>
     <g id="text_1">
      <!-- $\mathdefault{5}$ -->
      <g transform="translate(45.876423 189.300182) scale(0.1 -0.1)">
       <defs>
        <path id="CMR17-35" d="M 730 3692 
C 794 3666 1056 3584 1325 3584 
C 1920 3584 2246 3911 2432 4100 
C 2432 4157 2432 4192 2394 4192 
C 2387 4192 2374 4192 2323 4163 
C 2099 4058 1837 3973 1517 3973 
C 1325 3973 1037 3999 723 4139 
C 653 4171 640 4171 634 4171 
C 602 4171 595 4164 595 4037 
L 595 2203 
C 595 2089 595 2057 659 2057 
C 691 2057 704 2070 736 2114 
C 941 2401 1222 2522 1542 2522 
C 1766 2522 2246 2382 2246 1289 
C 2246 1085 2246 715 2054 421 
C 1894 159 1645 25 1370 25 
C 947 25 518 320 403 814 
C 429 807 480 795 506 795 
C 589 795 749 840 749 1038 
C 749 1210 627 1280 506 1280 
C 358 1280 262 1190 262 1011 
C 262 454 704 -128 1382 -128 
C 2042 -128 2669 440 2669 1264 
C 2669 2030 2170 2624 1549 2624 
C 1222 2624 947 2503 730 2274 
L 730 3692 
z
" transform="scale(0.015625)"/>
       </defs>
       <use xlink:href="#CMR17-35" transform="scale(0.996264)"/>
      </g>
     </g>
    </g>
    <g id="xtick_2">
     <g id="line2d_2">
      <g>
       <use xlink:href="#m382ee595d9" x="148.348538" y="175.381683" style="stroke: #000000; stroke-width: 0.8"/>
      </g>
     </g>
     <g id="text_2">
      <!-- $\mathdefault{10}$ -->
      <g transform="translate(143.367202 189.300182) scale(0.1 -0.1)">
       <defs>
        <path id="CMR17-31" d="M 1702 4058 
C 1702 4192 1696 4192 1606 4192 
C 1357 3916 979 3827 621 3827 
C 602 3827 570 3827 563 3808 
C 557 3795 557 3782 557 3648 
C 755 3648 1088 3686 1344 3839 
L 1344 461 
C 1344 236 1331 160 781 160 
L 589 160 
L 589 0 
C 896 0 1216 0 1523 0 
C 1830 0 2150 0 2458 0 
L 2458 160 
L 2266 160 
C 1715 160 1702 230 1702 458 
L 1702 4058 
z
" transform="scale(0.015625)"/>
        <path id="CMR17-30" d="M 2688 2025 
C 2688 2416 2682 3080 2413 3591 
C 2176 4039 1798 4198 1466 4198 
C 1158 4198 768 4058 525 3597 
C 269 3118 243 2524 243 2025 
C 243 1661 250 1106 448 619 
C 723 -39 1216 -128 1466 -128 
C 1760 -128 2208 -7 2470 600 
C 2662 1042 2688 1559 2688 2025 
z
M 1466 -26 
C 1056 -26 813 325 723 812 
C 653 1188 653 1738 653 2096 
C 653 2588 653 2997 736 3387 
C 858 3929 1216 4096 1466 4096 
C 1728 4096 2067 3923 2189 3400 
C 2272 3036 2278 2607 2278 2096 
C 2278 1680 2278 1169 2202 792 
C 2067 95 1690 -26 1466 -26 
z
" transform="scale(0.015625)"/>
       </defs>
       <use xlink:href="#CMR17-31" transform="scale(0.996264)"/>
       <use xlink:href="#CMR17-30" transform="translate(45.690477 0) scale(0.996264)"/>
      </g>
     </g>
    </g>
    <g id="xtick_3">
     <g id="line2d_3">
      <g>
       <use xlink:href="#m382ee595d9" x="248.329984" y="175.381683" style="stroke: #000000; stroke-width: 0.8"/>
      </g>
     </g>
     <g id="text_3">
      <!-- $\mathdefault{15}$ -->
      <g transform="translate(243.348649 189.300182) scale(0.1 -0.1)">
       <use xlink:href="#CMR17-31" transform="scale(0.996264)"/>
       <use xlink:href="#CMR17-35" transform="translate(45.690477 0) scale(0.996264)"/>
      </g>
     </g>
    </g>
    <g id="xtick_4">
     <g id="line2d_4">
      <g>
       <use xlink:href="#m382ee595d9" x="348.311431" y="175.381683" style="stroke: #000000; stroke-width: 0.8"/>
      </g>
     </g>
     <g id="text_4">
      <!-- $\mathdefault{20}$ -->
      <g transform="translate(343.330096 189.300182) scale(0.1 -0.1)">
       <defs>
        <path id="CMR17-32" d="M 2669 989 
L 2554 989 
C 2490 536 2438 459 2413 420 
C 2381 369 1920 369 1830 369 
L 602 369 
C 832 619 1280 1072 1824 1597 
C 2214 1967 2669 2402 2669 3035 
C 2669 3790 2067 4224 1395 4224 
C 691 4224 262 3604 262 3030 
C 262 2780 448 2748 525 2748 
C 589 2748 781 2787 781 3010 
C 781 3207 614 3264 525 3264 
C 486 3264 448 3258 422 3245 
C 544 3790 915 4058 1306 4058 
C 1862 4058 2227 3617 2227 3035 
C 2227 2479 1901 2000 1536 1584 
L 262 146 
L 262 0 
L 2515 0 
L 2669 989 
z
" transform="scale(0.015625)"/>
       </defs>
       <use xlink:href="#CMR17-32" transform="scale(0.996264)"/>
       <use xlink:href="#CMR17-30" transform="translate(45.690477 0) scale(0.996264)"/>
      </g>
     </g>
    </g>
    <g id="xtick_5">
     <g id="line2d_5">
      <g>
       <use xlink:href="#m382ee595d9" x="448.292878" y="175.381683" style="stroke: #000000; stroke-width: 0.8"/>
      </g>
     </g>
     <g id="text_5">
      <!-- $\mathdefault{25}$ -->
      <g transform="translate(443.311543 189.300182) scale(0.1 -0.1)">
       <use xlink:href="#CMR17-32" transform="scale(0.996264)"/>
       <use xlink:href="#CMR17-35" transform="translate(45.690477 0) scale(0.996264)"/>
      </g>
     </g>
    </g>
    <g id="xtick_6">
     <g id="line2d_6">
      <g>
       <use xlink:href="#m382ee595d9" x="548.274325" y="175.381683" style="stroke: #000000; stroke-width: 0.8"/>
      </g>
     </g>
     <g id="text_6">
      <!-- $\mathdefault{30}$ -->
      <g transform="translate(543.292989 189.300182) scale(0.1 -0.1)">
       <defs>
        <path id="CMR17-33" d="M 1414 2157 
C 1984 2157 2234 1662 2234 1090 
C 2234 320 1824 25 1453 25 
C 1114 25 563 194 390 693 
C 422 680 454 680 486 680 
C 640 680 755 782 755 948 
C 755 1133 614 1216 486 1216 
C 378 1216 211 1165 211 926 
C 211 335 787 -128 1466 -128 
C 2176 -128 2720 430 2720 1085 
C 2720 1707 2208 2157 1600 2227 
C 2086 2328 2554 2756 2554 3329 
C 2554 3820 2048 4179 1472 4179 
C 890 4179 378 3829 378 3329 
C 378 3110 544 3072 627 3072 
C 762 3072 877 3155 877 3321 
C 877 3486 762 3569 627 3569 
C 602 3569 570 3569 544 3557 
C 730 3959 1235 4032 1459 4032 
C 1683 4032 2106 3925 2106 3320 
C 2106 3143 2080 2828 1862 2550 
C 1670 2304 1453 2304 1242 2284 
C 1210 2284 1062 2269 1037 2269 
C 992 2263 966 2257 966 2208 
C 966 2163 973 2157 1101 2157 
L 1414 2157 
z
" transform="scale(0.015625)"/>
       </defs>
       <use xlink:href="#CMR17-33" transform="scale(0.996264)"/>
       <use xlink:href="#CMR17-30" transform="translate(45.690477 0) scale(0.996264)"/>
      </g>
     </g>
    </g>
    <g id="xtick_7">
     <g id="line2d_7">
      <g>
       <use xlink:href="#m382ee595d9" x="648.255771" y="175.381683" style="stroke: #000000; stroke-width: 0.8"/>
      </g>
     </g>
     <g id="text_7">
      <!-- $\mathdefault{35}$ -->
      <g transform="translate(643.274436 189.300182) scale(0.1 -0.1)">
       <use xlink:href="#CMR17-33" transform="scale(0.996264)"/>
       <use xlink:href="#CMR17-35" transform="translate(45.690477 0) scale(0.996264)"/>
      </g>
     </g>
    </g>
    <g id="xtick_8">
     <g id="line2d_8">
      <g>
       <use xlink:href="#m382ee595d9" x="748.237218" y="175.381683" style="stroke: #000000; stroke-width: 0.8"/>
      </g>
     </g>
     <g id="text_8">
      <!-- $\mathdefault{40}$ -->
      <g transform="translate(743.255883 189.300182) scale(0.1 -0.1)">
       <defs>
        <path id="CMR17-34" d="M 2150 4122 
C 2150 4256 2144 4256 2029 4256 
L 128 1254 
L 128 1088 
L 1779 1088 
L 1779 457 
C 1779 224 1766 160 1318 160 
L 1197 160 
L 1197 0 
C 1402 0 1747 0 1965 0 
C 2182 0 2528 0 2733 0 
L 2733 160 
L 2611 160 
C 2163 160 2150 224 2150 457 
L 2150 1088 
L 2803 1088 
L 2803 1254 
L 2150 1254 
L 2150 4122 
z
M 1798 3703 
L 1798 1254 
L 256 1254 
L 1798 3703 
z
" transform="scale(0.015625)"/>
       </defs>
       <use xlink:href="#CMR17-34" transform="scale(0.996264)"/>
       <use xlink:href="#CMR17-30" transform="translate(45.690477 0) scale(0.996264)"/>
      </g>
     </g>
    </g>
    <g id="xtick_9">
     <g id="line2d_9">
      <g>
       <use xlink:href="#m382ee595d9" x="848.218665" y="175.381683" style="stroke: #000000; stroke-width: 0.8"/>
      </g>
     </g>
     <g id="text_9">
      <!-- $\mathdefault{45}$ -->
      <g transform="translate(843.237329 189.300182) scale(0.1 -0.1)">
       <use xlink:href="#CMR17-34" transform="scale(0.996264)"/>
       <use xlink:href="#CMR17-35" transform="translate(45.690477 0) scale(0.996264)"/>
      </g>
     </g>
    </g>
    <g id="text_10">
     <!-- time [s] -->
     <g transform="translate(432.684744 202.70934) scale(0.1 -0.1)">
      <defs>
       <path id="CMSS17-74" d="M 1069 2368 
L 1901 2368 
L 1901 2737 
L 1069 2737 
L 1069 3520 
L 614 3520 
L 614 2737 
L 109 2737 
L 109 2368 
L 602 2368 
L 602 749 
C 602 384 685 -64 1107 -64 
C 1427 -64 1722 25 2003 172 
L 1901 548 
C 1747 414 1562 337 1363 337 
C 1082 337 1069 696 1069 856 
L 1069 2368 
z
" transform="scale(0.015625)"/>
       <path id="CMSS17-69" d="M 979 4183 
L 442 4183 
L 442 3648 
L 979 3648 
L 979 4183 
z
M 947 2739 
L 474 2739 
L 474 0 
L 947 0 
L 947 2739 
z
" transform="scale(0.015625)"/>
       <path id="CMSS17-6d" d="M 4288 1877 
C 4288 2308 4179 2816 3462 2816 
C 2982 2816 2694 2516 2566 2331 
C 2451 2670 2182 2816 1798 2816 
C 1363 2816 1088 2568 941 2389 
L 941 2758 
L 474 2758 
L 474 0 
L 960 0 
L 960 1559 
C 960 1939 1101 2428 1555 2428 
C 2138 2428 2138 2016 2138 1829 
L 2138 0 
L 2624 0 
L 2624 1559 
C 2624 1939 2765 2428 3219 2428 
C 3802 2428 3802 2016 3802 1829 
L 3802 0 
L 4288 0 
L 4288 1877 
z
" transform="scale(0.015625)"/>
       <path id="CMSS17-65" d="M 2502 1377 
C 2502 1590 2490 2003 2285 2345 
C 2061 2713 1696 2816 1421 2816 
C 755 2816 192 2188 192 1375 
C 192 582 774 -64 1510 -64 
C 1798 -64 2150 19 2470 248 
C 2470 274 2458 414 2451 420 
C 2451 433 2432 630 2432 656 
C 2125 407 1773 325 1517 325 
C 1107 325 666 667 646 1377 
L 2502 1377 
z
M 698 1728 
C 781 2084 1062 2421 1421 2421 
C 1517 2421 1965 2421 2080 1728 
L 698 1728 
z
" transform="scale(0.015625)"/>
       <path id="CMSS17-5b" d="M 1613 -1600 
L 1613 -1212 
L 1062 -1212 
L 1062 4352 
L 1613 4352 
L 1613 4741 
L 595 4741 
L 595 -1600 
L 1613 -1600 
z
" transform="scale(0.015625)"/>
       <path id="CMSS17-73" d="M 2061 2627 
C 1683 2807 1389 2807 1197 2807 
C 742 2807 198 2648 198 2003 
C 198 1359 902 1218 1094 1179 
C 1389 1122 1715 1058 1715 740 
C 1715 337 1254 337 1171 337 
C 915 337 563 407 243 638 
L 166 210 
C 531 0 883 -64 1178 -64 
C 1965 -64 2163 416 2163 781 
C 2163 1094 1984 1305 1862 1401 
C 1651 1568 1574 1587 1050 1696 
C 960 1709 646 1779 646 2066 
C 646 2432 1050 2432 1139 2432 
C 1555 2432 1811 2303 1984 2208 
L 2061 2627 
z
" transform="scale(0.015625)"/>
       <path id="CMSS17-5d" d="M 1146 4741 
L 128 4741 
L 128 4352 
L 678 4352 
L 678 -1212 
L 128 -1212 
L 128 -1600 
L 1146 -1600 
L 1146 4741 
z
" transform="scale(0.015625)"/>
      </defs>
      <use xlink:href="#CMSS17-74" transform="scale(0.996264)"/>
      <use xlink:href="#CMSS17-69" transform="translate(33.831567 0) scale(0.996264)"/>
      <use xlink:href="#CMSS17-6d" transform="translate(56.01229 0) scale(0.996264)"/>
      <use xlink:href="#CMSS17-65" transform="translate(130.241544 0) scale(0.996264)"/>
      <use xlink:href="#CMSS17-5b" transform="translate(203.109479 0) scale(0.996264)"/>
      <use xlink:href="#CMSS17-73" transform="translate(230.294918 0) scale(0.996264)"/>
      <use xlink:href="#CMSS17-5d" transform="translate(266.20846 0) scale(0.996264)"/>
     </g>
    </g>
   </g>
   <g id="matplotlib.axis_2">
    <g id="ytick_1">
     <g id="line2d_10">
      <defs>
       <path id="m207c38f711" d="M 0 0 
L -3.5 0 
" style="stroke: #000000; stroke-width: 0.8"/>
      </defs>
      <g>
       <use xlink:href="#m207c38f711" x="48.367091" y="155.559349" style="stroke: #000000; stroke-width: 0.8"/>
      </g>
     </g>
     <g id="text_11">
      <!-- $\mathdefault{0.30}$ -->
      <g transform="translate(23.655677 159.018598) scale(0.1 -0.1)">
       <defs>
        <path id="CMMI12-3a" d="M 1178 307 
C 1178 492 1024 619 870 619 
C 685 619 557 466 557 313 
C 557 128 710 0 864 0 
C 1050 0 1178 153 1178 307 
z
" transform="scale(0.015625)"/>
       </defs>
       <use xlink:href="#CMR17-30" transform="scale(0.996264)"/>
       <use xlink:href="#CMMI12-3a" transform="translate(45.690477 0) scale(0.996264)"/>
       <use xlink:href="#CMR17-33" transform="translate(72.787654 0) scale(0.996264)"/>
       <use xlink:href="#CMR17-30" transform="translate(118.478131 0) scale(0.996264)"/>
      </g>
     </g>
    </g>
    <g id="ytick_2">
     <g id="line2d_11">
      <g>
       <use xlink:href="#m207c38f711" x="48.367091" y="134.022184" style="stroke: #000000; stroke-width: 0.8"/>
      </g>
     </g>
     <g id="text_12">
      <!-- $\mathdefault{0.35}$ -->
      <g transform="translate(23.655677 137.481433) scale(0.1 -0.1)">
       <use xlink:href="#CMR17-30" transform="scale(0.996264)"/>
       <use xlink:href="#CMMI12-3a" transform="translate(45.690477 0) scale(0.996264)"/>
       <use xlink:href="#CMR17-33" transform="translate(72.787654 0) scale(0.996264)"/>
       <use xlink:href="#CMR17-35" transform="translate(118.478131 0) scale(0.996264)"/>
      </g>
     </g>
    </g>
    <g id="ytick_3">
     <g id="line2d_12">
      <g>
       <use xlink:href="#m207c38f711" x="48.367091" y="112.485019" style="stroke: #000000; stroke-width: 0.8"/>
      </g>
     </g>
     <g id="text_13">
      <!-- $\mathdefault{0.40}$ -->
      <g transform="translate(23.655677 115.944268) scale(0.1 -0.1)">
       <use xlink:href="#CMR17-30" transform="scale(0.996264)"/>
       <use xlink:href="#CMMI12-3a" transform="translate(45.690477 0) scale(0.996264)"/>
       <use xlink:href="#CMR17-34" transform="translate(72.787654 0) scale(0.996264)"/>
       <use xlink:href="#CMR17-30" transform="translate(118.478131 0) scale(0.996264)"/>
      </g>
     </g>
    </g>
    <g id="ytick_4">
     <g id="line2d_13">
      <g>
       <use xlink:href="#m207c38f711" x="48.367091" y="90.947854" style="stroke: #000000; stroke-width: 0.8"/>
      </g>
     </g>
     <g id="text_14">
      <!-- $\mathdefault{0.45}$ -->
      <g transform="translate(23.655677 94.407103) scale(0.1 -0.1)">
       <use xlink:href="#CMR17-30" transform="scale(0.996264)"/>
       <use xlink:href="#CMMI12-3a" transform="translate(45.690477 0) scale(0.996264)"/>
       <use xlink:href="#CMR17-34" transform="translate(72.787654 0) scale(0.996264)"/>
       <use xlink:href="#CMR17-35" transform="translate(118.478131 0) scale(0.996264)"/>
      </g>
     </g>
    </g>
    <g id="ytick_5">
     <g id="line2d_14">
      <g>
       <use xlink:href="#m207c38f711" x="48.367091" y="69.410689" style="stroke: #000000; stroke-width: 0.8"/>
      </g>
     </g>
     <g id="text_15">
      <!-- $\mathdefault{0.50}$ -->
      <g transform="translate(23.655677 72.869938) scale(0.1 -0.1)">
       <use xlink:href="#CMR17-30" transform="scale(0.996264)"/>
       <use xlink:href="#CMMI12-3a" transform="translate(45.690477 0) scale(0.996264)"/>
       <use xlink:href="#CMR17-35" transform="translate(72.787654 0) scale(0.996264)"/>
       <use xlink:href="#CMR17-30" transform="translate(118.478131 0) scale(0.996264)"/>
      </g>
     </g>
    </g>
    <g id="ytick_6">
     <g id="line2d_15">
      <g>
       <use xlink:href="#m207c38f711" x="48.367091" y="47.873524" style="stroke: #000000; stroke-width: 0.8"/>
      </g>
     </g>
     <g id="text_16">
      <!-- $\mathdefault{0.55}$ -->
      <g transform="translate(23.655677 51.332773) scale(0.1 -0.1)">
       <use xlink:href="#CMR17-30" transform="scale(0.996264)"/>
       <use xlink:href="#CMMI12-3a" transform="translate(45.690477 0) scale(0.996264)"/>
       <use xlink:href="#CMR17-35" transform="translate(72.787654 0) scale(0.996264)"/>
       <use xlink:href="#CMR17-35" transform="translate(118.478131 0) scale(0.996264)"/>
      </g>
     </g>
    </g>
    <g id="ytick_7">
     <g id="line2d_16">
      <g>
       <use xlink:href="#m207c38f711" x="48.367091" y="26.336359" style="stroke: #000000; stroke-width: 0.8"/>
      </g>
     </g>
     <g id="text_17">
      <!-- $\mathdefault{0.60}$ -->
      <g transform="translate(23.655677 29.795608) scale(0.1 -0.1)">
       <defs>
        <path id="CMR17-36" d="M 678 2176 
C 678 3690 1395 4032 1811 4032 
C 1946 4032 2272 4009 2400 3776 
C 2298 3776 2106 3776 2106 3553 
C 2106 3381 2246 3323 2336 3323 
C 2394 3323 2566 3348 2566 3560 
C 2566 3954 2246 4179 1805 4179 
C 1043 4179 243 3390 243 1984 
C 243 253 966 -128 1478 -128 
C 2099 -128 2688 427 2688 1283 
C 2688 2081 2170 2662 1517 2662 
C 1126 2662 838 2407 678 1960 
L 678 2176 
z
M 1478 25 
C 691 25 691 1200 691 1436 
C 691 1896 909 2560 1504 2560 
C 1613 2560 1926 2560 2138 2120 
C 2253 1870 2253 1609 2253 1289 
C 2253 944 2253 690 2118 434 
C 1978 171 1773 25 1478 25 
z
" transform="scale(0.015625)"/>
       </defs>
       <use xlink:href="#CMR17-30" transform="scale(0.996264)"/>
       <use xlink:href="#CMMI12-3a" transform="translate(45.690477 0) scale(0.996264)"/>
       <use xlink:href="#CMR17-36" transform="translate(72.787654 0) scale(0.996264)"/>
       <use xlink:href="#CMR17-30" transform="translate(118.478131 0) scale(0.996264)"/>
      </g>
     </g>
    </g>
    <g id="text_18">
     <!-- mIoU -->
     <g transform="translate(17.718498 104.34729) rotate(-90) scale(0.1 -0.1)">
      <defs>
       <path id="CMSS17-49" d="M 1094 4416 
L 557 4416 
L 557 0 
L 1094 0 
L 1094 4416 
z
" transform="scale(0.015625)"/>
       <path id="CMSS17-6f" d="M 2829 1356 
C 2829 2176 2221 2816 1504 2816 
C 768 2816 173 2157 173 1356 
C 173 544 787 -64 1498 -64 
C 2227 -64 2829 563 2829 1356 
z
M 1504 337 
C 1050 337 659 709 659 1408 
C 659 2151 1114 2427 1498 2427 
C 1914 2427 2342 2126 2342 1408 
C 2342 683 1926 337 1504 337 
z
" transform="scale(0.015625)"/>
       <path id="CMSS17-55" d="M 3552 4384 
L 3066 4384 
L 3066 1449 
C 3066 604 2547 229 2074 229 
C 1587 229 1101 623 1101 1443 
L 1101 4384 
L 563 4384 
L 563 1454 
C 563 539 1274 -128 2067 -128 
C 2861 -128 3552 539 3552 1454 
L 3552 4384 
z
" transform="scale(0.015625)"/>
      </defs>
      <use xlink:href="#CMSS17-6d" transform="scale(0.996264)"/>
      <use xlink:href="#CMSS17-49" transform="translate(74.229254 0) scale(0.996264)"/>
      <use xlink:href="#CMSS17-6f" transform="translate(100.01318 0) scale(0.996264)"/>
      <use xlink:href="#CMSS17-55" transform="translate(146.856803 0) scale(0.996264)"/>
     </g>
    </g>
   </g>
   <g id="line2d_17">
    <path d="M 48.688454 115.535187 
L 50.688234 117.392466 
L 52.688142 109.986804 
L 55.187376 106.698298 
L 57.187033 113.999954 
L 58.687241 113.479677 
L 60.686774 112.587213 
L 62.686195 109.534834 
L 65.185979 111.414963 
L 67.185615 108.051578 
L 68.684976 110.090169 
L 70.685103 116.11309 
L 72.68473 111.221751 
L 74.684319 108.540006 
L 76.684098 118.179345 
L 78.683711 116.073796 
L 81.183418 126.595099 
L 82.683522 114.585649 
L 85.182665 121.393139 
L 86.682514 121.903171 
L 88.682125 124.684199 
L 91.181786 124.111251 
L 92.681647 130.629148 
L 94.681253 131.192827 
L 96.681281 133.576147 
L 98.681143 130.01403 
L 100.680555 129.134878 
L 103.180129 116.530221 
L 105.183414 114.094243 
L 108.678824 108.216728 
L 110.679489 108.14258 
L 113.177858 104.323297 
L 115.17825 108.431968 
L 116.677676 104.621401 
L 118.67729 106.505176 
L 120.677749 105.589014 
L 122.677391 100.177295 
L 124.676924 99.546349 
L 126.675997 97.022668 
L 129.175883 114.182691 
L 131.175703 104.456534 
L 132.675175 103.188878 
L 134.675209 102.059132 
L 136.674905 107.757543 
L 138.674799 99.815082 
L 140.673947 92.948182 
L 142.674279 87.57405 
L 144.673783 97.349464 
L 146.673755 94.212141 
L 149.173522 89.102339 
L 150.673395 90.17184 
L 152.672716 74.538861 
L 154.672131 65.546322 
L 156.672001 76.146791 
L 158.671239 75.1091 
L 160.670725 70.660732 
L 162.670548 76.821319 
L 164.66987 76.717878 
L 166.669857 83.449346 
L 169.169575 85.611956 
L 170.668688 90.286823 
L 172.668277 61.127826 
L 174.667798 61.289266 
L 176.667638 59.100583 
L 179.167189 54.537541 
L 181.167315 52.567218 
L 184.667634 57.901465 
L 187.166936 60.086656 
L 189.166577 62.715704 
L 191.166304 64.350284 
L 193.166037 62.097929 
L 195.165793 50.571914 
L 197.165285 115.48579 
L 199.165186 118.163478 
L 201.164102 111.57096 
L 203.164188 109.55934 
L 204.664071 112.842967 
L 207.164232 110.536016 
L 209.16373 100.603373 
L 211.163061 102.696445 
L 212.662864 94.880135 
L 214.662457 100.328376 
L 217.162367 99.591536 
L 219.161939 101.251187 
L 221.160843 105.972717 
L 223.160451 120.314972 
L 224.660408 126.514212 
L 226.660498 110.127037 
L 229.158997 130.609006 
L 230.659331 115.203 
L 233.158602 117.215558 
L 235.15875 109.497182 
L 236.658197 113.898759 
L 239.157009 128.970549 
L 240.65755 132.132455 
L 244.657088 136.098582 
L 247.156323 138.911921 
L 248.6565 138.576782 
L 251.156083 119.53188 
L 253.156108 119.032579 
L 255.155336 135.245708 
L 256.655402 124.936218 
L 258.655023 124.519986 
L 260.654762 132.48133 
L 262.654118 131.580496 
L 265.153732 124.907989 
L 268.652783 118.563214 
L 271.152387 129.780971 
L 273.152482 117.488848 
L 274.652211 124.768693 
L 276.651873 151.281517 
L 278.651571 144.596738 
L 281.150696 144.932378 
L 282.651015 144.54123 
L 284.650489 149.943706 
L 287.150203 163.683617 
L 289.149947 159.20331 
L 290.649947 159.380039 
L 292.649436 161.422622 
L 294.648916 159.210922 
L 297.148569 161.38628 
L 299.147871 161.667234 
L 301.148123 163.443344 
L 303.147788 147.587396 
L 304.647649 153.715261 
L 306.646854 146.504017 
L 308.647322 145.947309 
L 311.146782 148.706718 
L 312.646123 149.229473 
L 314.645562 142.505669 
L 317.144956 145.089402 
L 318.644772 145.203627 
L 320.64443 156.768192 
L 323.144501 158.78772 
L 325.144436 167.900698 
L 327.143991 153.364447 
L 328.643466 156.489408 
L 330.643212 157.290523 
L 333.143065 150.062232 
L 334.642307 153.162968 
L 337.141801 152.362431 
L 338.641527 148.066145 
L 340.641681 151.141348 
L 342.641055 146.340536 
L 344.640906 142.569469 
L 346.640535 142.811745 
L 348.6403 141.523896 
L 350.640105 138.476267 
L 352.639703 139.929958 
L 356.639068 140.472495 
L 358.63856 138.790892 
L 360.638352 136.576304 
L 363.137714 138.020009 
L 364.637725 144.255321 
L 367.137008 136.532517 
L 368.636996 133.60304 
L 371.136769 144.33667 
L 373.136081 133.401548 
L 375.135616 143.707752 
L 377.135308 133.410098 
L 378.635209 133.820836 
L 380.634935 132.750025 
L 382.634884 131.919808 
L 384.634491 132.738985 
L 387.133596 129.565821 
L 388.633319 134.15912 
L 390.633429 130.802038 
L 392.633025 133.609331 
L 394.632762 132.894956 
L 396.632777 131.175792 
L 399.131685 132.817343 
L 401.131984 130.723077 
L 402.632049 143.126512 
L 405.131187 132.758009 
L 407.130802 152.007599 
L 408.630473 135.275798 
L 410.630321 136.757539 
L 412.630348 143.506427 
L 414.629896 154.781489 
L 416.629146 147.134809 
L 418.629278 140.612215 
L 420.628942 144.187695 
L 423.128329 138.999933 
L 424.628428 145.579203 
L 426.628477 137.733073 
L 428.6278 148.103886 
L 430.626655 148.880007 
L 432.626454 148.945399 
L 434.626593 142.853119 
L 436.626354 151.159731 
L 438.626146 150.978419 
L 441.125337 152.103916 
L 442.62476 153.671127 
L 444.624477 151.547965 
L 446.624467 158.893408 
L 448.624253 161.392737 
L 450.624048 150.480851 
L 453.123411 157.880698 
L 454.622938 155.170557 
L 457.122756 152.67603 
L 458.62244 154.389032 
L 460.622128 158.015989 
L 462.621856 157.625663 
L 464.621281 138.400964 
L 466.62134 141.496463 
L 468.620883 142.429917 
L 471.120244 133.221341 
L 473.120079 137.823305 
L 474.619749 137.375648 
L 477.119504 127.774191 
L 478.618842 128.191039 
L 481.118277 133.100723 
L 483.118394 134.73909 
L 485.118062 129.695758 
L 487.117806 133.61865 
L 489.117377 129.778057 
L 491.116943 132.971311 
L 493.116666 128.455099 
L 494.616378 124.071122 
L 496.616468 123.302986 
L 499.115601 126.966644 
L 500.615307 120.893799 
L 503.114979 115.631941 
L 504.615189 113.960505 
L 507.115015 110.816122 
L 508.614418 114.463722 
L 510.614088 115.525906 
L 513.11434 113.826178 
L 514.613342 114.265439 
L 516.613108 109.735363 
L 518.613311 115.165721 
L 521.112155 124.752018 
L 523.11266 115.517973 
L 524.612223 113.65009 
L 528.611568 118.615385 
L 531.111595 129.48908 
L 532.61138 126.88292 
L 535.110898 106.324198 
L 537.110867 105.646538 
L 539.10995 107.949856 
L 540.609365 106.175274 
L 542.609393 105.902369 
L 544.609069 107.033849 
L 546.608666 93.772969 
L 549.10829 107.418296 
L 550.608187 104.958287 
L 553.107852 95.432839 
L 554.60745 88.175843 
L 556.606835 84.373287 
L 558.607636 83.010148 
L 560.606341 89.388197 
L 563.106004 92.051867 
L 565.10615 93.601863 
L 566.60562 93.352655 
L 568.605061 88.246383 
L 570.604453 96.75432 
L 572.604724 116.079598 
L 575.105083 114.324362 
L 576.603623 123.463964 
L 579.103623 126.093115 
L 582.102178 129.983773 
L 583.102464 127.565883 
L 585.102528 129.174095 
L 587.102523 120.455167 
L 589.102277 123.050274 
L 591.101873 122.344115 
L 593.101441 127.124875 
L 595.100293 137.427574 
L 597.100371 138.859032 
L 599.099719 139.770572 
L 600.599978 138.047005 
L 603.09893 138.362812 
L 605.098737 131.931156 
L 607.098497 134.094395 
L 609.098504 141.300889 
L 611.097576 129.996276 
L 612.597622 136.743316 
L 615.096881 117.823512 
L 615.096881 117.823512 
" clip-path="url(#p0507c4d0fe)" style="fill: none; stroke: #1f77b4; stroke-width: 1.5; stroke-linecap: square"/>
   </g>
   <g id="line2d_18">
    <path d="M 48.725397 115.535187 
L 50.725174 117.392466 
L 52.725077 109.986804 
L 55.225508 106.698298 
L 56.724938 113.999954 
L 58.724139 113.479677 
L 61.224188 112.587213 
L 62.72346 109.534834 
L 64.723591 111.414963 
L 66.723892 108.051578 
L 68.723273 110.090169 
L 71.222739 116.11309 
L 72.722493 111.221751 
L 75.222263 108.540006 
L 76.721784 118.179345 
L 78.721772 116.073796 
L 80.721569 126.595099 
L 82.721359 114.585649 
L 84.721217 121.393139 
L 86.720984 121.903171 
L 89.21912 124.684199 
L 90.718825 124.111251 
L 93.218276 130.629148 
L 95.218108 131.192827 
L 97.218547 133.576147 
L 99.218063 130.01403 
L 100.717346 129.134878 
L 103.217632 116.530221 
L 106.716917 110.640998 
L 108.716195 108.216728 
L 110.715373 108.14258 
L 112.715355 104.323297 
L 115.215012 108.431968 
L 116.714696 104.621401 
L 118.714324 106.505176 
L 120.714143 105.589014 
L 122.713811 100.177295 
L 124.712957 99.546349 
L 126.712677 97.022668 
L 128.71295 114.182691 
L 130.712123 104.456534 
L 133.21173 103.188878 
L 134.711778 102.059132 
L 136.711566 107.757543 
L 139.210943 99.815082 
L 140.71093 92.948182 
L 143.222026 87.57405 
L 144.710767 97.349464 
L 146.710516 94.212141 
L 148.710003 89.102339 
L 150.709215 90.17184 
L 153.708411 74.538861 
L 154.708619 65.546322 
L 156.708469 76.146791 
L 159.207918 75.1091 
L 160.707461 70.660732 
L 162.707117 76.821319 
L 164.707229 76.717878 
L 166.70653 83.449346 
L 168.707096 85.611956 
L 171.205596 90.286823 
L 172.706374 61.127826 
L 174.705572 61.289266 
L 177.205403 59.100583 
L 179.204712 54.537541 
L 180.704725 52.567218 
L 182.704501 54.7892 
L 184.704097 57.901465 
L 187.204303 60.086656 
L 188.703433 62.715704 
L 190.70275 64.350284 
L 192.702177 62.097929 
L 194.701604 50.571914 
L 196.701257 58.702965 
L 198.700928 118.163478 
L 200.70059 111.57096 
L 202.700315 109.55934 
L 204.700494 112.842967 
L 206.700007 110.536016 
L 208.69978 100.603373 
L 211.199467 102.696445 
L 213.199323 94.880135 
L 217.198558 46.637378 
L 217.698153 46.688804 
L 219.698282 46.442742 
L 221.697888 62.122012 
L 223.697532 67.586504 
L 225.6971 79.016896 
L 227.696908 77.990245 
L 229.696611 91.20378 
L 231.695835 77.705966 
L 234.195219 79.894867 
L 235.695307 76.356948 
L 237.695404 63.200692 
L 239.695152 73.660877 
L 241.694436 88.860166 
L 243.694498 90.636481 
L 245.194058 83.673739 
L 247.693828 74.870149 
L 249.693223 86.726234 
L 251.693104 68.381098 
L 253.692749 83.207827 
L 255.692606 96.741727 
L 257.692585 98.436372 
L 259.691886 83.186056 
L 261.691672 96.575383 
L 264.191105 93.276518 
L 265.690502 93.000006 
L 267.690678 91.764969 
L 270.190801 91.047167 
L 272.189583 100.795648 
L 273.689397 91.032597 
L 275.689014 91.510088 
L 277.689303 113.534068 
L 279.688551 122.150171 
L 281.688186 123.110364 
L 283.687991 122.211584 
L 287.687576 121.569046 
L 289.687452 129.294957 
L 291.68717 122.57648 
L 293.68664 114.580078 
L 295.686258 121.170388 
L 297.686131 122.396195 
L 299.685443 119.789714 
L 301.185035 125.412951 
L 303.18447 127.370373 
L 305.684603 134.478252 
L 307.683979 137.41733 
L 309.683829 133.152585 
L 311.683238 140.822615 
L 314.182784 136.394941 
L 315.68259 124.712454 
L 317.68238 125.420538 
L 319.68189 124.523876 
L 321.681682 131.462458 
L 323.681795 132.822234 
L 326.181001 138.305314 
L 327.680958 124.437379 
L 329.680507 123.364951 
L 331.680784 124.182279 
L 333.679904 120.853529 
L 336.179212 124.150494 
L 337.678444 122.091454 
L 339.67888 120.549083 
L 341.678593 124.68099 
L 343.678351 119.519723 
L 347.677593 125.365107 
L 349.677231 123.45458 
L 351.677075 125.629565 
L 353.676875 124.683711 
L 355.675707 124.927784 
L 357.675619 123.737292 
L 362.674676 111.063546 
L 364.174656 106.604715 
L 366.174471 113.604326 
L 367.674415 104.444172 
L 369.674069 107.858186 
L 372.173073 114.388727 
L 373.673501 107.224326 
L 375.673117 116.113334 
L 377.672668 102.81524 
L 379.67253 105.888428 
L 382.6713 102.818026 
L 383.671121 105.541787 
L 385.67094 104.256698 
L 387.670513 99.154046 
L 389.671113 101.715366 
L 392.1699 99.313509 
L 393.670279 101.366298 
L 396.169312 96.127803 
L 397.66952 105.371861 
L 400.16893 103.42168 
L 402.168825 100.023596 
L 403.667986 113.220482 
L 406.167798 94.878235 
L 408.167895 97.923682 
L 410.666862 107.533933 
L 412.166814 100.983019 
L 413.666742 115.153256 
L 416.166491 115.944089 
L 418.16575 103.370716 
L 420.665336 105.996132 
L 422.165104 108.135135 
L 424.164854 109.223481 
L 425.664692 112.215038 
L 428.164656 108.66631 
L 430.164509 107.473932 
L 432.164138 110.374601 
L 434.164568 110.014699 
L 435.663994 104.145823 
L 438.162746 107.996378 
L 439.662582 102.9189 
L 441.662421 102.697356 
L 444.16155 105.742534 
L 445.662083 108.270477 
L 447.661745 108.672806 
L 449.661199 115.969879 
L 451.66086 117.201334 
L 454.159731 117.291862 
L 455.659742 116.684985 
L 457.659893 116.028635 
L 459.659987 121.38853 
L 461.658583 113.859464 
L 463.658462 117.472827 
L 465.657982 108.230425 
L 467.65805 106.271065 
L 469.657696 96.718479 
L 471.657251 89.024571 
L 475.656367 82.298469 
L 477.65657 88.55192 
L 480.156003 87.524178 
L 481.655452 89.865199 
L 483.655727 85.455792 
L 490.154598 87.832051 
L 492.153712 81.535198 
L 494.153924 87.252262 
L 496.653411 85.661264 
L 498.152787 81.864548 
L 500.152389 78.491535 
L 501.652381 86.940871 
L 504.152114 75.270373 
L 506.651771 74.428012 
L 508.151131 74.46257 
L 510.15091 79.181275 
L 512.15039 78.930604 
L 516.149814 69.608612 
L 518.149461 73.516575 
L 519.649763 74.535203 
L 522.149305 68.073879 
L 523.648905 77.342443 
L 525.649276 73.411746 
L 530.147564 72.001123 
L 531.647516 69.202676 
L 534.148071 77.130348 
L 535.751881 62.352182 
L 537.646705 59.777768 
L 540.146955 61.674457 
L 542.14632 59.646418 
L 544.1455 56.910976 
L 546.145407 60.810235 
L 547.644815 32.611944 
L 549.644098 51.568154 
L 551.644726 54.560673 
L 553.644202 34.565117 
L 556.144434 35.628829 
L 558.143448 31.704512 
L 559.643179 31.603175 
L 561.643274 42.551904 
L 563.643097 35.416451 
L 565.642784 36.980324 
L 567.642258 44.823258 
L 569.642096 41.390835 
L 571.641279 44.46351 
L 573.643592 57.776225 
L 575.641167 43.168703 
L 577.640784 59.165821 
L 579.640643 68.334166 
L 582.139499 72.372168 
L 583.639532 62.720403 
L 585.63946 69.514696 
L 587.638986 51.864538 
L 589.638536 62.165966 
L 592.137714 52.801419 
L 593.637958 57.470881 
L 595.637828 62.863973 
L 598.136993 58.139106 
L 599.636725 69.102777 
L 602.136448 69.569549 
L 604.136446 64.650956 
L 605.635677 70.346235 
L 608.135561 70.279328 
L 610.135029 74.589427 
L 611.634853 64.111462 
L 614.134429 61.30372 
L 615.634263 47.259852 
L 615.634263 47.259852 
" clip-path="url(#p0507c4d0fe)" style="fill: none; stroke: #ff7f0e; stroke-width: 1.5; stroke-linecap: square"/>
   </g>
   <g id="line2d_19">
    <path d="M 706.620039 37.113419 
L 707.620456 45.638186 
L 709.619625 33.925031 
L 712.11847 33.884953 
L 714.118331 18.280986 
L 716.117851 33.244379 
L 717.666605 37.637432 
L 719.616944 41.548013 
L 721.616984 25.255846 
L 723.616367 45.238565 
L 725.616446 47.937037 
L 728.115578 44.504845 
L 729.615784 35.944956 
L 731.615434 50.985039 
L 733.615076 55.139577 
L 736.114262 45.774337 
L 738.113996 44.663718 
L 739.613825 37.654043 
L 741.613389 41.221385 
L 743.61307 58.765302 
L 745.612772 58.789025 
L 747.612852 66.863336 
L 749.612188 58.279647 
L 751.61182 63.747298 
L 753.611595 72.065283 
L 755.611424 62.889699 
L 758.110879 45.639444 
L 759.610929 61.464287 
L 761.610085 47.942557 
L 763.609884 48.223691 
L 766.109362 70.754495 
L 768.1091 70.403681 
L 769.609275 68.284203 
L 771.60853 87.005185 
L 774.108582 90.264499 
L 776.108202 94.491336 
L 778.107779 99.828163 
L 780.107534 103.495095 
L 782.107201 105.778555 
L 784.107051 97.262736 
L 786.107441 118.483278 
L 787.606576 112.828577 
L 790.106305 117.98001 
L 792.105986 116.92341 
L 794.104998 121.1499 
L 796.105004 112.25604 
L 798.10428 113.298263 
L 800.10418 93.878324 
L 802.104133 89.631961 
L 804.10377 94.315878 
L 806.103521 98.53147 
L 808.103008 84.047441 
L 809.602836 97.476988 
L 811.602655 88.736519 
L 814.102322 84.486254 
L 816.101988 97.864015 
L 817.601627 104.995129 
L 819.601356 102.860915 
L 822.100701 93.251049 
L 824.100339 104.143847 
L 826.099968 97.882719 
L 828.09951 93.925128 
L 829.600008 100.006394 
L 831.59971 79.920439 
L 833.599268 89.56766 
L 836.098153 101.180763 
L 837.598653 92.612016 
L 839.598121 93.538229 
L 841.598114 101.689858 
L 843.597903 79.093071 
L 845.597708 107.964953 
L 847.597104 102.660937 
" clip-path="url(#p0507c4d0fe)" style="fill: none; stroke: #ff7f0e; stroke-width: 1.5; stroke-linecap: square"/>
   </g>
   <g id="line2d_20">
    <path d="M 196.339632 175.381683 
L 196.339632 10.8 
" clip-path="url(#p0507c4d0fe)" style="fill: none; stroke-dasharray: 3.7,1.6; stroke-dashoffset: 0; stroke: #000000"/>
   </g>
   <g id="line2d_21">
    <path d="M 216.335921 175.381683 
L 216.335921 10.8 
" clip-path="url(#p0507c4d0fe)" style="fill: none; stroke-dasharray: 3.7,1.6; stroke-dashoffset: 0; stroke: #000000"/>
   </g>
   <g id="line2d_22">
    <path d="M 348.311431 175.381683 
L 348.311431 10.8 
" clip-path="url(#p0507c4d0fe)" style="fill: none; stroke-dasharray: 3.7,1.6; stroke-dashoffset: 0; stroke: #000000"/>
   </g>
   <g id="line2d_23">
    <path d="M 362.308834 175.381683 
L 362.308834 10.8 
" clip-path="url(#p0507c4d0fe)" style="fill: none; stroke-dasharray: 3.7,1.6; stroke-dashoffset: 0; stroke: #000000"/>
   </g>
   <g id="line2d_24">
    <path d="M 616.261708 175.381683 
L 616.261708 10.8 
" clip-path="url(#p0507c4d0fe)" style="fill: none; stroke-dasharray: 3.7,1.6; stroke-dashoffset: 0; stroke: #000000"/>
   </g>
   <g id="line2d_25">
    <path d="M 682.249463 175.381683 
L 682.249463 10.8 
" clip-path="url(#p0507c4d0fe)" style="fill: none; stroke-dasharray: 3.7,1.6; stroke-dashoffset: 0; stroke: #000000"/>
   </g>
   <g id="line2d_26">
    <path d="M 706.24501 175.381683 
L 706.24501 10.8 
" clip-path="url(#p0507c4d0fe)" style="fill: none; stroke-dasharray: 3.7,1.6; stroke-dashoffset: 0; stroke: #000000"/>
   </g>
   <g id="patch_3">
    <path d="M 48.367091 175.381683 
L 48.367091 10.8 
" style="fill: none; stroke: #000000; stroke-width: 0.8; stroke-linejoin: miter; stroke-linecap: square"/>
   </g>
   <g id="patch_4">
    <path d="M 848.218665 175.381683 
L 848.218665 10.8 
" style="fill: none; stroke: #000000; stroke-width: 0.8; stroke-linejoin: miter; stroke-linecap: square"/>
   </g>
   <g id="patch_5">
    <path d="M 48.367091 175.381683 
L 848.218665 175.381683 
" style="fill: none; stroke: #000000; stroke-width: 0.8; stroke-linejoin: miter; stroke-linecap: square"/>
   </g>
   <g id="patch_6">
    <path d="M 48.367091 10.8 
L 848.218665 10.8 
" style="fill: none; stroke: #000000; stroke-width: 0.8; stroke-linejoin: miter; stroke-linecap: square"/>
   </g>
   <g id="text_19">
    <!-- image degraded -->
    <g transform="translate(208.64107 90.401319) rotate(-90) scale(0.12 -0.12)">
     <defs>
      <path id="CMSS17-61" d="M 2406 1791 
C 2406 2392 1978 2808 1402 2808 
C 1120 2808 813 2757 461 2553 
L 499 2135 
C 659 2248 934 2432 1395 2432 
C 1722 2432 1920 2180 1920 1782 
L 1920 1536 
C 896 1536 256 1238 256 726 
C 256 461 416 -64 947 -64 
C 1043 -64 1562 -64 1933 217 
L 1933 -19 
L 2406 -19 
L 2406 1791 
z
M 1920 816 
C 1920 701 1920 548 1728 434 
C 1562 325 1350 325 1261 325 
C 941 325 723 511 723 744 
C 723 1211 1722 1211 1920 1211 
L 1920 816 
z
" transform="scale(0.015625)"/>
      <path id="CMSS17-67" d="M 2848 2808 
C 2483 2808 2170 2738 1914 2617 
C 1702 2777 1485 2808 1338 2808 
C 781 2808 358 2349 358 1814 
C 358 1468 550 1207 563 1195 
C 448 1035 384 863 384 672 
C 384 448 474 289 544 200 
C 211 -3 166 -314 166 -435 
C 166 -898 749 -1280 1498 -1280 
C 2253 -1280 2835 -898 2835 -428 
C 2835 448 1856 448 1587 448 
L 1069 448 
C 973 448 717 448 717 791 
C 717 921 774 1004 781 1010 
C 877 940 1075 832 1338 832 
C 1869 832 2310 1278 2310 1827 
C 2310 2132 2170 2355 2112 2432 
L 2131 2432 
C 2150 2432 2419 2432 2515 2432 
C 2720 2432 2739 2429 2918 2419 
L 2848 2808 
z
M 1338 1182 
C 1120 1182 813 1315 813 1823 
C 813 2375 1165 2464 1331 2464 
C 1549 2464 1856 2331 1856 1823 
C 1856 1271 1504 1182 1338 1182 
z
M 1581 -10 
C 1734 -10 2381 -10 2381 -442 
C 2381 -714 1984 -929 1504 -929 
C 1018 -929 621 -720 621 -435 
C 621 -403 621 -10 1062 -10 
L 1581 -10 
z
" transform="scale(0.015625)"/>
      <path id="CMSS17-64" d="M 2611 4416 
L 2138 4416 
L 2138 2438 
C 1939 2603 1613 2756 1254 2756 
C 672 2756 211 2131 211 1347 
C 211 562 666 -64 1235 -64 
C 1677 -64 1971 172 2125 306 
L 2125 -13 
L 2611 -13 
L 2611 4416 
z
M 2125 836 
C 2125 747 2125 653 1926 482 
C 1798 375 1645 325 1498 325 
C 1152 325 698 576 698 1340 
C 698 2134 1210 2368 1562 2368 
C 1798 2368 1990 2254 2125 2065 
L 2125 836 
z
" transform="scale(0.015625)"/>
      <path id="CMSS17-72" d="M 954 1363 
C 954 1965 1395 2368 1958 2368 
L 1958 2789 
C 1549 2789 1165 2585 934 2253 
L 934 2758 
L 480 2758 
L 480 0 
L 954 0 
L 954 1363 
z
" transform="scale(0.015625)"/>
     </defs>
     <use xlink:href="#CMSS17-69" transform="scale(0.996264)"/>
     <use xlink:href="#CMSS17-6d" transform="translate(22.180723 0) scale(0.996264)"/>
     <use xlink:href="#CMSS17-61" transform="translate(96.409977 0) scale(0.996264)"/>
     <use xlink:href="#CMSS17-67" transform="translate(141.331898 0) scale(0.996264)"/>
     <use xlink:href="#CMSS17-65" transform="translate(188.175522 0) scale(0.996264)"/>
     <use xlink:href="#CMSS17-64" transform="translate(261.043456 0) scale(0.996264)"/>
     <use xlink:href="#CMSS17-65" transform="translate(309.2484 0) scale(0.996264)"/>
     <use xlink:href="#CMSS17-67" transform="translate(350.887222 0) scale(0.996264)"/>
     <use xlink:href="#CMSS17-72" transform="translate(397.730845 0) scale(0.996264)"/>
     <use xlink:href="#CMSS17-61" transform="translate(429.640618 0) scale(0.996264)"/>
     <use xlink:href="#CMSS17-64" transform="translate(474.562538 0) scale(0.996264)"/>
     <use xlink:href="#CMSS17-65" transform="translate(522.767481 0) scale(0.996264)"/>
     <use xlink:href="#CMSS17-64" transform="translate(564.406304 0) scale(0.996264)"/>
    </g>
   </g>
   <g id="text_20">
    <!-- enhancement -->
    <g transform="translate(228.637359 77.892806) rotate(-90) scale(0.12 -0.12)">
     <defs>
      <path id="CMSS17-6e" d="M 2618 1877 
C 2618 2283 2522 2816 1798 2816 
C 1389 2816 1120 2606 941 2389 
L 941 2758 
L 474 2758 
L 474 0 
L 960 0 
L 960 1559 
C 960 1964 1114 2428 1549 2428 
C 2112 2428 2131 2048 2131 1829 
L 2131 0 
L 2618 0 
L 2618 1877 
z
" transform="scale(0.015625)"/>
      <path id="CMSS17-68" d="M 2618 1891 
C 2618 2292 2522 2820 1798 2820 
C 1395 2820 1133 2623 947 2407 
L 947 4448 
L 474 4448 
L 474 32 
L 960 32 
L 960 1573 
C 960 1973 1114 2432 1549 2432 
C 2112 2432 2131 2056 2131 1839 
L 2131 32 
L 2618 32 
L 2618 1891 
z
" transform="scale(0.015625)"/>
      <path id="CMSS17-63" d="M 2464 2541 
C 2464 2585 2170 2714 2093 2739 
C 1882 2816 1613 2816 1542 2816 
C 710 2816 211 2093 211 1363 
C 211 595 768 -64 1517 -64 
C 1946 -64 2253 76 2502 242 
L 2464 664 
C 2189 453 1869 337 1523 337 
C 1024 337 698 774 698 1369 
C 698 1831 909 2414 1549 2414 
C 1901 2414 2099 2343 2394 2145 
L 2464 2541 
z
" transform="scale(0.015625)"/>
     </defs>
     <use xlink:href="#CMSS17-65" transform="scale(0.996264)"/>
     <use xlink:href="#CMSS17-6e" transform="translate(41.638822 0) scale(0.996264)"/>
     <use xlink:href="#CMSS17-68" transform="translate(89.843765 0) scale(0.996264)"/>
     <use xlink:href="#CMSS17-61" transform="translate(138.048708 0) scale(0.996264)"/>
     <use xlink:href="#CMSS17-6e" transform="translate(182.970629 0) scale(0.996264)"/>
     <use xlink:href="#CMSS17-63" transform="translate(231.175572 0) scale(0.996264)"/>
     <use xlink:href="#CMSS17-65" transform="translate(272.814394 0) scale(0.996264)"/>
     <use xlink:href="#CMSS17-6d" transform="translate(314.453216 0) scale(0.996264)"/>
     <use xlink:href="#CMSS17-65" transform="translate(388.682471 0) scale(0.996264)"/>
     <use xlink:href="#CMSS17-6e" transform="translate(430.321293 0) scale(0.996264)"/>
     <use xlink:href="#CMSS17-74" transform="translate(478.526236 0) scale(0.996264)"/>
    </g>
    <!--  activated -->
    <g transform="translate(240.924571 77.892806) rotate(-90) scale(0.12 -0.12)">
     <defs>
      <path id="CMSS17-76" d="M 2675 2752 
L 2176 2752 
L 1747 1556 
C 1613 1165 1421 627 1389 352 
L 1382 352 
C 1370 468 1318 634 1286 749 
C 1248 890 1197 1056 1158 1172 
L 595 2752 
L 83 2752 
L 1094 0 
L 1664 0 
L 2675 2752 
z
" transform="scale(0.015625)"/>
     </defs>
     <use xlink:href="#CMSS17-61" transform="scale(0.996264)"/>
     <use xlink:href="#CMSS17-63" transform="translate(44.921921 0) scale(0.996264)"/>
     <use xlink:href="#CMSS17-74" transform="translate(86.560743 0) scale(0.996264)"/>
     <use xlink:href="#CMSS17-69" transform="translate(120.392309 0) scale(0.996264)"/>
     <use xlink:href="#CMSS17-76" transform="translate(142.573032 0) scale(0.996264)"/>
     <use xlink:href="#CMSS17-61" transform="translate(185.573174 0) scale(0.996264)"/>
     <use xlink:href="#CMSS17-74" transform="translate(230.495095 0) scale(0.996264)"/>
     <use xlink:href="#CMSS17-65" transform="translate(264.326661 0) scale(0.996264)"/>
     <use xlink:href="#CMSS17-64" transform="translate(305.965483 0) scale(0.996264)"/>
    </g>
   </g>
   <g id="text_21">
    <!-- flightphase descent -->
    <g transform="translate(340.616579 106.605644) rotate(-90) scale(0.12 -0.12)">
     <defs>
      <path id="CMSS17-d" d="M 1075 2368 
L 1773 2368 
L 1773 2737 
L 1062 2737 
L 1062 3578 
C 1062 3919 1216 4092 1421 4092 
C 1594 4092 1754 4021 1773 4009 
L 1773 4429 
C 1722 4442 1574 4480 1421 4480 
C 941 4480 602 3993 602 3372 
L 602 2737 
L 160 2737 
L 160 2368 
L 602 2368 
L 602 0 
L 1075 0 
L 1075 2368 
z
M 2733 4429 
L 2259 4429 
L 2259 0 
L 2733 0 
L 2733 4429 
z
" transform="scale(0.015625)"/>
      <path id="CMSS17-70" d="M 966 333 
C 1178 129 1466 -5 1773 -5 
C 2368 -5 2880 603 2880 1412 
C 2880 2159 2496 2816 1946 2816 
C 1626 2816 1242 2702 954 2472 
L 954 2765 
L 480 2765 
L 480 -1216 
L 966 -1216 
L 966 333 
z
M 966 2100 
C 1018 2176 1235 2415 1587 2415 
C 2035 2415 2394 1960 2394 1412 
C 2394 787 1958 384 1530 384 
C 1402 384 1267 415 1139 523 
C 966 674 966 768 966 857 
L 966 2100 
z
" transform="scale(0.015625)"/>
     </defs>
     <use xlink:href="#CMSS17-d" transform="scale(0.996264)"/>
     <use xlink:href="#CMSS17-69" transform="translate(50.126737 0) scale(0.996264)"/>
     <use xlink:href="#CMSS17-67" transform="translate(72.30746 0) scale(0.996264)"/>
     <use xlink:href="#CMSS17-68" transform="translate(119.151084 0) scale(0.996264)"/>
     <use xlink:href="#CMSS17-74" transform="translate(167.356027 0) scale(0.996264)"/>
     <use xlink:href="#CMSS17-70" transform="translate(201.187594 0) scale(0.996264)"/>
     <use xlink:href="#CMSS17-68" transform="translate(249.392537 0) scale(0.996264)"/>
     <use xlink:href="#CMSS17-61" transform="translate(297.59748 0) scale(0.996264)"/>
     <use xlink:href="#CMSS17-73" transform="translate(342.519401 0) scale(0.996264)"/>
     <use xlink:href="#CMSS17-65" transform="translate(378.432943 0) scale(0.996264)"/>
     <use xlink:href="#CMSS17-64" transform="translate(451.300877 0) scale(0.996264)"/>
     <use xlink:href="#CMSS17-65" transform="translate(499.50582 0) scale(0.996264)"/>
     <use xlink:href="#CMSS17-73" transform="translate(541.144643 0) scale(0.996264)"/>
     <use xlink:href="#CMSS17-63" transform="translate(577.058185 0) scale(0.996264)"/>
     <use xlink:href="#CMSS17-65" transform="translate(618.697007 0) scale(0.996264)"/>
     <use xlink:href="#CMSS17-6e" transform="translate(660.335829 0) scale(0.996264)"/>
     <use xlink:href="#CMSS17-74" transform="translate(708.540772 0) scale(0.996264)"/>
    </g>
   </g>
   <g id="text_22">
    <!-- depth activated -->
    <g transform="translate(374.610271 89.533754) rotate(-90) scale(0.12 -0.12)">
     <use xlink:href="#CMSS17-64" transform="scale(0.996264)"/>
     <use xlink:href="#CMSS17-65" transform="translate(48.204943 0) scale(0.996264)"/>
     <use xlink:href="#CMSS17-70" transform="translate(89.843765 0) scale(0.996264)"/>
     <use xlink:href="#CMSS17-74" transform="translate(138.048708 0) scale(0.996264)"/>
     <use xlink:href="#CMSS17-68" transform="translate(171.880275 0) scale(0.996264)"/>
     <use xlink:href="#CMSS17-61" transform="translate(251.314331 0) scale(0.996264)"/>
     <use xlink:href="#CMSS17-63" transform="translate(296.236252 0) scale(0.996264)"/>
     <use xlink:href="#CMSS17-74" transform="translate(337.875074 0) scale(0.996264)"/>
     <use xlink:href="#CMSS17-69" transform="translate(371.70664 0) scale(0.996264)"/>
     <use xlink:href="#CMSS17-76" transform="translate(393.887363 0) scale(0.996264)"/>
     <use xlink:href="#CMSS17-61" transform="translate(436.887505 0) scale(0.996264)"/>
     <use xlink:href="#CMSS17-74" transform="translate(481.809426 0) scale(0.996264)"/>
     <use xlink:href="#CMSS17-65" transform="translate(515.640992 0) scale(0.996264)"/>
     <use xlink:href="#CMSS17-64" transform="translate(557.279814 0) scale(0.996264)"/>
    </g>
    <!-- fuse rgb+depth -->
    <g transform="translate(386.897483 89.533754) rotate(-90) scale(0.12 -0.12)">
     <defs>
      <path id="CMSS17-66" d="M 1075 2368 
L 1722 2368 
L 1722 2737 
L 1062 2737 
L 1062 3559 
C 1062 4014 1408 4092 1606 4092 
C 1670 4092 1850 4092 2080 4009 
L 2080 4429 
C 1933 4461 1754 4480 1613 4480 
C 1018 4480 602 3993 602 3359 
L 602 2737 
L 160 2737 
L 160 2368 
L 602 2368 
L 602 0 
L 1075 0 
L 1075 2368 
z
" transform="scale(0.015625)"/>
      <path id="CMSS17-75" d="M 2618 2739 
L 2131 2739 
L 2131 972 
C 2131 498 1786 306 1421 306 
C 998 306 960 447 960 709 
L 960 2739 
L 474 2739 
L 474 678 
C 474 179 646 -64 1088 -64 
C 1306 -64 1798 -13 2144 306 
L 2144 0 
L 2618 0 
L 2618 2739 
z
" transform="scale(0.015625)"/>
      <path id="CMSS17-62" d="M 954 4416 
L 480 4416 
L 480 -13 
L 966 -13 
L 966 274 
C 1210 38 1504 -64 1766 -64 
C 2381 -64 2880 549 2880 1352 
C 2880 2086 2496 2756 1926 2756 
C 1523 2756 1165 2591 954 2419 
L 954 4416 
z
M 966 2046 
C 1107 2222 1306 2368 1587 2368 
C 1965 2368 2394 2097 2394 1352 
C 2394 558 1882 325 1530 325 
C 1402 325 1267 356 1139 464 
C 966 615 966 709 966 797 
L 966 2046 
z
" transform="scale(0.015625)"/>
      <path id="CMSS17-2b" d="M 2451 1505 
L 4141 1505 
C 4230 1505 4339 1505 4339 1613 
C 4339 1728 4237 1728 4141 1728 
L 2451 1728 
L 2451 3413 
C 2451 3502 2451 3611 2342 3611 
C 2227 3611 2227 3509 2227 3413 
L 2227 1728 
L 531 1728 
C 442 1728 333 1728 333 1620 
C 333 1505 435 1505 531 1505 
L 2227 1505 
L 2227 -186 
C 2227 -275 2227 -384 2336 -384 
C 2451 -384 2451 -282 2451 -186 
L 2451 1505 
z
" transform="scale(0.015625)"/>
     </defs>
     <use xlink:href="#CMSS17-66" transform="scale(0.996264)"/>
     <use xlink:href="#CMSS17-75" transform="translate(28.626659 0) scale(0.996264)"/>
     <use xlink:href="#CMSS17-73" transform="translate(76.831602 0) scale(0.996264)"/>
     <use xlink:href="#CMSS17-65" transform="translate(112.745144 0) scale(0.996264)"/>
     <use xlink:href="#CMSS17-72" transform="translate(185.613079 0) scale(0.996264)"/>
     <use xlink:href="#CMSS17-67" transform="translate(217.522851 0) scale(0.996264)"/>
     <use xlink:href="#CMSS17-62" transform="translate(264.366475 0) scale(0.996264)"/>
     <use xlink:href="#CMSS17-2b" transform="translate(312.571418 0) scale(0.996264)"/>
     <use xlink:href="#CMSS17-64" transform="translate(385.439353 0) scale(0.996264)"/>
     <use xlink:href="#CMSS17-65" transform="translate(433.644296 0) scale(0.996264)"/>
     <use xlink:href="#CMSS17-70" transform="translate(475.283118 0) scale(0.996264)"/>
     <use xlink:href="#CMSS17-74" transform="translate(523.488061 0) scale(0.996264)"/>
     <use xlink:href="#CMSS17-68" transform="translate(557.319628 0) scale(0.996264)"/>
    </g>
   </g>
   <g id="text_23">
    <!-- camera image dropped -->
    <g transform="translate(628.563146 124.675167) rotate(-90) scale(0.12 -0.12)">
     <use xlink:href="#CMSS17-63" transform="scale(0.996264)"/>
     <use xlink:href="#CMSS17-61" transform="translate(41.638822 0) scale(0.996264)"/>
     <use xlink:href="#CMSS17-6d" transform="translate(86.560743 0) scale(0.996264)"/>
     <use xlink:href="#CMSS17-65" transform="translate(160.789997 0) scale(0.996264)"/>
     <use xlink:href="#CMSS17-72" transform="translate(202.428819 0) scale(0.996264)"/>
     <use xlink:href="#CMSS17-61" transform="translate(234.338592 0) scale(0.996264)"/>
     <use xlink:href="#CMSS17-69" transform="translate(310.489625 0) scale(0.996264)"/>
     <use xlink:href="#CMSS17-6d" transform="translate(332.670348 0) scale(0.996264)"/>
     <use xlink:href="#CMSS17-61" transform="translate(406.899603 0) scale(0.996264)"/>
     <use xlink:href="#CMSS17-67" transform="translate(451.821523 0) scale(0.996264)"/>
     <use xlink:href="#CMSS17-65" transform="translate(498.665147 0) scale(0.996264)"/>
     <use xlink:href="#CMSS17-64" transform="translate(571.533082 0) scale(0.996264)"/>
     <use xlink:href="#CMSS17-72" transform="translate(619.738025 0) scale(0.996264)"/>
     <use xlink:href="#CMSS17-6f" transform="translate(651.647797 0) scale(0.996264)"/>
     <use xlink:href="#CMSS17-70" transform="translate(698.491421 0) scale(0.996264)"/>
     <use xlink:href="#CMSS17-70" transform="translate(746.696364 0) scale(0.996264)"/>
     <use xlink:href="#CMSS17-65" transform="translate(797.503746 0) scale(0.996264)"/>
     <use xlink:href="#CMSS17-64" transform="translate(839.142568 0) scale(0.996264)"/>
    </g>
   </g>
   <g id="text_24">
    <!-- camera redeployed -->
    <g transform="translate(676.55424 103.636249) rotate(-90) scale(0.12 -0.12)">
     <defs>
      <path id="CMSS17-6c" d="M 947 4416 
L 474 4416 
L 474 0 
L 947 0 
L 947 4416 
z
" transform="scale(0.015625)"/>
      <path id="CMSS17-79" d="M 2675 2752 
L 2176 2752 
C 1632 1294 1446 702 1434 383 
L 1427 383 
C 1408 696 1126 1460 902 2007 
L 602 2752 
L 83 2752 
L 1216 13 
C 1146 -178 1043 -465 1011 -529 
C 870 -885 774 -885 672 -885 
C 646 -885 442 -885 211 -809 
L 250 -1229 
C 410 -1261 570 -1280 685 -1280 
C 845 -1280 1165 -1280 1459 -497 
L 2675 2752 
z
" transform="scale(0.015625)"/>
     </defs>
     <use xlink:href="#CMSS17-63" transform="scale(0.996264)"/>
     <use xlink:href="#CMSS17-61" transform="translate(41.638822 0) scale(0.996264)"/>
     <use xlink:href="#CMSS17-6d" transform="translate(86.560743 0) scale(0.996264)"/>
     <use xlink:href="#CMSS17-65" transform="translate(160.789997 0) scale(0.996264)"/>
     <use xlink:href="#CMSS17-72" transform="translate(202.428819 0) scale(0.996264)"/>
     <use xlink:href="#CMSS17-61" transform="translate(234.338592 0) scale(0.996264)"/>
     <use xlink:href="#CMSS17-72" transform="translate(310.489625 0) scale(0.996264)"/>
     <use xlink:href="#CMSS17-65" transform="translate(342.399398 0) scale(0.996264)"/>
     <use xlink:href="#CMSS17-64" transform="translate(384.03822 0) scale(0.996264)"/>
     <use xlink:href="#CMSS17-65" transform="translate(432.243163 0) scale(0.996264)"/>
     <use xlink:href="#CMSS17-70" transform="translate(473.881985 0) scale(0.996264)"/>
     <use xlink:href="#CMSS17-6c" transform="translate(522.086928 0) scale(0.996264)"/>
     <use xlink:href="#CMSS17-6f" transform="translate(544.267651 0) scale(0.996264)"/>
     <use xlink:href="#CMSS17-79" transform="translate(588.508821 0) scale(0.996264)"/>
     <use xlink:href="#CMSS17-65" transform="translate(628.906508 0) scale(0.996264)"/>
     <use xlink:href="#CMSS17-64" transform="translate(670.54533 0) scale(0.996264)"/>
    </g>
   </g>
   <g id="text_25">
    <!-- camera activated -->
    <g transform="translate(700.549788 96.904657) rotate(-90) scale(0.12 -0.12)">
     <use xlink:href="#CMSS17-63" transform="scale(0.996264)"/>
     <use xlink:href="#CMSS17-61" transform="translate(41.638822 0) scale(0.996264)"/>
     <use xlink:href="#CMSS17-6d" transform="translate(86.560743 0) scale(0.996264)"/>
     <use xlink:href="#CMSS17-65" transform="translate(160.789997 0) scale(0.996264)"/>
     <use xlink:href="#CMSS17-72" transform="translate(202.428819 0) scale(0.996264)"/>
     <use xlink:href="#CMSS17-61" transform="translate(234.338592 0) scale(0.996264)"/>
     <use xlink:href="#CMSS17-61" transform="translate(310.489625 0) scale(0.996264)"/>
     <use xlink:href="#CMSS17-63" transform="translate(355.411546 0) scale(0.996264)"/>
     <use xlink:href="#CMSS17-74" transform="translate(397.050368 0) scale(0.996264)"/>
     <use xlink:href="#CMSS17-69" transform="translate(430.881934 0) scale(0.996264)"/>
     <use xlink:href="#CMSS17-76" transform="translate(453.062657 0) scale(0.996264)"/>
     <use xlink:href="#CMSS17-61" transform="translate(496.062799 0) scale(0.996264)"/>
     <use xlink:href="#CMSS17-74" transform="translate(540.98472 0) scale(0.996264)"/>
     <use xlink:href="#CMSS17-65" transform="translate(574.816286 0) scale(0.996264)"/>
     <use xlink:href="#CMSS17-64" transform="translate(616.455109 0) scale(0.996264)"/>
    </g>
   </g>
   <g id="legend_1">
    <g id="patch_7">
     <path d="M 772.024737 46.674357 
L 841.218665 46.674357 
Q 843.218665 46.674357 843.218665 44.674357 
L 843.218665 17.8 
Q 843.218665 15.8 841.218665 15.8 
L 772.024737 15.8 
Q 770.024737 15.8 770.024737 17.8 
L 770.024737 44.674357 
Q 770.024737 46.674357 772.024737 46.674357 
z
" style="fill: #ffffff; opacity: 0.8; stroke: #cccccc; stroke-linejoin: miter"/>
    </g>
    <g id="line2d_27">
     <path d="M 774.024737 23.3 
L 784.024737 23.3 
L 794.024737 23.3 
" style="fill: none; stroke: #1f77b4; stroke-width: 1.5; stroke-linecap: square"/>
    </g>
    <g id="text_26">
     <!-- baseline -->
     <g transform="translate(802.024737 26.8) scale(0.1 -0.1)">
      <use xlink:href="#CMSS17-62" transform="scale(0.996264)"/>
      <use xlink:href="#CMSS17-61" transform="translate(48.204943 0) scale(0.996264)"/>
      <use xlink:href="#CMSS17-73" transform="translate(93.126864 0) scale(0.996264)"/>
      <use xlink:href="#CMSS17-65" transform="translate(129.040406 0) scale(0.996264)"/>
      <use xlink:href="#CMSS17-6c" transform="translate(170.679228 0) scale(0.996264)"/>
      <use xlink:href="#CMSS17-69" transform="translate(192.859951 0) scale(0.996264)"/>
      <use xlink:href="#CMSS17-6e" transform="translate(215.040674 0) scale(0.996264)"/>
      <use xlink:href="#CMSS17-65" transform="translate(263.245617 0) scale(0.996264)"/>
     </g>
    </g>
    <g id="line2d_28">
     <path d="M 774.024737 37.237178 
L 784.024737 37.237178 
L 794.024737 37.237178 
" style="fill: none; stroke: #ff7f0e; stroke-width: 1.5; stroke-linecap: square"/>
    </g>
    <g id="text_27">
     <!-- managed -->
     <g transform="translate(802.024737 40.737178) scale(0.1 -0.1)">
      <use xlink:href="#CMSS17-6d" transform="scale(0.996264)"/>
      <use xlink:href="#CMSS17-61" transform="translate(74.229254 0) scale(0.996264)"/>
      <use xlink:href="#CMSS17-6e" transform="translate(119.151175 0) scale(0.996264)"/>
      <use xlink:href="#CMSS17-61" transform="translate(167.356118 0) scale(0.996264)"/>
      <use xlink:href="#CMSS17-67" transform="translate(212.278039 0) scale(0.996264)"/>
      <use xlink:href="#CMSS17-65" transform="translate(259.121662 0) scale(0.996264)"/>
      <use xlink:href="#CMSS17-64" transform="translate(300.760484 0) scale(0.996264)"/>
     </g>
    </g>
   </g>
  </g>
 </g>
 <defs>
  <clipPath id="p0507c4d0fe">
   <rect x="48.367091" y="10.8" width="799.851574" height="164.581683"/>
  </clipPath>
 </defs>
</svg>
